<svg width="351" height="137" viewBox="0 0 351 137" fill="none" xmlns="http://www.w3.org/2000/svg">
<rect width="136" height="137" rx="20" fill="#0D2065"/>
<rect x="46" y="41" width="36" height="67" rx="6" fill="white"/>
<rect y="71" width="52" height="11" fill="white"/>
<rect x="46" y="93" width="36" height="6" fill="#0D2065"/>
<rect x="46" y="50" width="36" height="6" fill="#0D2065"/>
<path d="M33 130C33 126.686 35.6863 124 39 124H97C100.314 124 103 126.686 103 130V137H33V130Z" fill="white"/>
<path d="M152.16 57.18V54H157.05C158.05 54 158.82 53.75 159.36 53.25C159.92 52.73 160.2 52.02 160.2 51.12C160.2 50.3 159.92 49.62 159.36 49.08C158.82 48.52 158.05 48.24 157.05 48.24H152.16V44.91H157.41C158.77 44.91 159.96 45.18 160.98 45.72C162.02 46.24 162.82 46.96 163.38 47.88C163.96 48.8 164.25 49.86 164.25 51.06C164.25 52.3 163.96 53.38 163.38 54.3C162.82 55.2 162.02 55.91 160.98 56.43C159.94 56.93 158.73 57.18 157.35 57.18H152.16ZM149.16 66V44.91H153.24V66H149.16ZM160.68 66L153.72 56.88L157.47 55.71L165.63 66H160.68ZM173.919 66.3C172.459 66.3 171.139 65.97 169.959 65.31C168.799 64.63 167.869 63.72 167.169 62.58C166.489 61.42 166.149 60.13 166.149 58.71C166.149 57.29 166.489 56.02 167.169 54.9C167.849 53.76 168.779 52.86 169.959 52.2C171.139 51.52 172.449 51.18 173.889 51.18C175.369 51.18 176.689 51.52 177.849 52.2C179.029 52.86 179.959 53.76 180.639 54.9C181.319 56.02 181.659 57.29 181.659 58.71C181.659 60.13 181.319 61.42 180.639 62.58C179.959 63.72 179.029 64.63 177.849 65.31C176.689 65.97 175.379 66.3 173.919 66.3ZM173.889 62.64C174.629 62.64 175.279 62.48 175.839 62.16C176.419 61.82 176.859 61.36 177.159 60.78C177.479 60.18 177.639 59.5 177.639 58.74C177.639 57.98 177.479 57.31 177.159 56.73C176.839 56.15 176.399 55.7 175.839 55.38C175.279 55.04 174.629 54.87 173.889 54.87C173.169 54.87 172.529 55.04 171.969 55.38C171.409 55.7 170.969 56.15 170.649 56.73C170.329 57.31 170.169 57.98 170.169 58.74C170.169 59.5 170.329 60.18 170.649 60.78C170.969 61.36 171.409 61.82 171.969 62.16C172.529 62.48 173.169 62.64 173.889 62.64ZM188.31 66.12L182.25 51.51H186.51L190.53 62.67H189.09L193.26 51.51H197.55L191.1 66.12H188.31ZM184.29 72.06L188.7 62.73L191.1 66.12L188.46 72.06H184.29ZM205.826 66.3C204.306 66.3 202.956 65.98 201.776 65.34C200.596 64.68 199.656 63.78 198.956 62.64C198.276 61.5 197.936 60.2 197.936 58.74C197.936 57.3 198.266 56.02 198.926 54.9C199.606 53.76 200.526 52.86 201.686 52.2C202.846 51.52 204.136 51.18 205.556 51.18C206.956 51.18 208.186 51.5 209.246 52.14C210.326 52.76 211.166 53.62 211.766 54.72C212.386 55.8 212.696 57.03 212.696 58.41C212.696 58.67 212.676 58.94 212.636 59.22C212.616 59.48 212.566 59.78 212.486 60.12L200.306 60.15V57.21L210.656 57.18L209.066 58.41C209.026 57.55 208.866 56.83 208.586 56.25C208.326 55.67 207.936 55.23 207.416 54.93C206.916 54.61 206.296 54.45 205.556 54.45C204.776 54.45 204.096 54.63 203.516 54.99C202.936 55.33 202.486 55.82 202.166 56.46C201.866 57.08 201.716 57.82 201.716 58.68C201.716 59.56 201.876 60.33 202.196 60.99C202.536 61.63 203.016 62.13 203.636 62.49C204.256 62.83 204.976 63 205.796 63C206.536 63 207.206 62.88 207.806 62.64C208.406 62.38 208.926 62 209.366 61.5L211.676 63.81C210.976 64.63 210.116 65.25 209.096 65.67C208.096 66.09 207.006 66.3 205.826 66.3ZM215.127 66V44.31H219.057V66H215.127Z" fill="#0D2065"/>
<path d="M228.299 66L221.459 44.91H225.479L230.549 61.14H229.199L234.179 44.91H237.209L242.189 61.14H240.809L245.909 44.91H249.929L243.059 66H240.029L235.019 49.8H236.339L231.359 66H228.299ZM256.372 66.3C255.052 66.3 253.862 65.97 252.802 65.31C251.742 64.65 250.912 63.75 250.312 62.61C249.712 61.47 249.412 60.19 249.412 58.77C249.412 57.33 249.712 56.04 250.312 54.9C250.912 53.76 251.742 52.86 252.802 52.2C253.862 51.54 255.052 51.21 256.372 51.21C257.412 51.21 258.342 51.42 259.162 51.84C259.982 52.26 260.632 52.85 261.112 53.61C261.612 54.35 261.882 55.19 261.922 56.13V61.35C261.882 62.31 261.612 63.16 261.112 63.9C260.632 64.64 259.982 65.23 259.162 65.67C258.342 66.09 257.412 66.3 256.372 66.3ZM257.092 62.67C258.192 62.67 259.082 62.31 259.762 61.59C260.442 60.85 260.782 59.9 260.782 58.74C260.782 57.98 260.622 57.31 260.302 56.73C260.002 56.13 259.572 55.67 259.012 55.35C258.472 55.01 257.832 54.84 257.092 54.84C256.372 54.84 255.732 55.01 255.172 55.35C254.632 55.67 254.202 56.13 253.882 56.73C253.582 57.31 253.432 57.98 253.432 58.74C253.432 59.52 253.582 60.21 253.882 60.81C254.202 61.39 254.632 61.85 255.172 62.19C255.732 62.51 256.372 62.67 257.092 62.67ZM260.572 66V62.1L261.202 58.56L260.572 55.08V51.51H264.472V66H260.572ZM267.949 66V44.31H271.879V66H267.949ZM282.291 66.3C280.771 66.3 279.421 65.98 278.241 65.34C277.061 64.68 276.121 63.78 275.421 62.64C274.741 61.5 274.401 60.2 274.401 58.74C274.401 57.3 274.731 56.02 275.391 54.9C276.071 53.76 276.991 52.86 278.151 52.2C279.311 51.52 280.601 51.18 282.021 51.18C283.421 51.18 284.651 51.5 285.711 52.14C286.791 52.76 287.631 53.62 288.231 54.72C288.851 55.8 289.161 57.03 289.161 58.41C289.161 58.67 289.141 58.94 289.101 59.22C289.081 59.48 289.031 59.78 288.951 60.12L276.771 60.15V57.21L287.121 57.18L285.531 58.41C285.491 57.55 285.331 56.83 285.051 56.25C284.791 55.67 284.401 55.23 283.881 54.93C283.381 54.61 282.761 54.45 282.021 54.45C281.241 54.45 280.561 54.63 279.981 54.99C279.401 55.33 278.951 55.82 278.631 56.46C278.331 57.08 278.181 57.82 278.181 58.68C278.181 59.56 278.341 60.33 278.661 60.99C279.001 61.63 279.481 62.13 280.101 62.49C280.721 62.83 281.441 63 282.261 63C283.001 63 283.671 62.88 284.271 62.64C284.871 62.38 285.391 62 285.831 61.5L288.141 63.81C287.441 64.63 286.581 65.25 285.561 65.67C284.561 66.09 283.471 66.3 282.291 66.3Z" fill="#063BFF"/>
<path d="M152.436 90.924L147.522 83.508H149.484L153.444 89.574H152.562L156.54 83.508H158.466L153.516 90.924H152.436ZM152.148 96V89.808H153.84V96H152.148ZM161.41 96.18C160.57 96.18 159.814 95.982 159.142 95.586C158.47 95.19 157.936 94.656 157.54 93.984C157.144 93.3 156.946 92.538 156.946 91.698C156.946 90.87 157.144 90.126 157.54 89.466C157.936 88.794 158.47 88.26 159.142 87.864C159.814 87.468 160.57 87.27 161.41 87.27C162.238 87.27 162.988 87.468 163.66 87.864C164.344 88.248 164.884 88.776 165.28 89.448C165.676 90.12 165.874 90.87 165.874 91.698C165.874 92.538 165.676 93.3 165.28 93.984C164.884 94.656 164.344 95.19 163.66 95.586C162.988 95.982 162.238 96.18 161.41 96.18ZM161.41 94.614C161.95 94.614 162.43 94.488 162.85 94.236C163.27 93.984 163.6 93.642 163.84 93.21C164.08 92.766 164.2 92.262 164.2 91.698C164.2 91.146 164.074 90.654 163.822 90.222C163.582 89.79 163.252 89.454 162.832 89.214C162.424 88.962 161.95 88.836 161.41 88.836C160.87 88.836 160.39 88.962 159.97 89.214C159.55 89.454 159.22 89.79 158.98 90.222C158.74 90.654 158.62 91.146 158.62 91.698C158.62 92.262 158.74 92.766 158.98 93.21C159.22 93.642 159.55 93.984 159.97 94.236C160.39 94.488 160.87 94.614 161.41 94.614ZM171.138 96.18C170.442 96.18 169.812 96.024 169.248 95.712C168.696 95.388 168.264 94.944 167.952 94.38C167.64 93.816 167.484 93.162 167.484 92.418V87.45H169.104V92.346C169.104 92.814 169.182 93.222 169.338 93.57C169.506 93.906 169.746 94.164 170.058 94.344C170.37 94.524 170.736 94.614 171.156 94.614C171.792 94.614 172.29 94.416 172.65 94.02C173.01 93.612 173.19 93.054 173.19 92.346V87.45H174.81V92.418C174.81 93.162 174.654 93.816 174.342 94.38C174.03 94.944 173.598 95.388 173.046 95.712C172.506 96.024 171.87 96.18 171.138 96.18ZM176.981 96V87.45H178.601V96H176.981ZM178.601 91.122L177.989 90.852C177.989 89.76 178.241 88.89 178.745 88.242C179.249 87.594 179.975 87.27 180.923 87.27C181.355 87.27 181.745 87.348 182.093 87.504C182.441 87.648 182.765 87.894 183.065 88.242L182.003 89.34C181.823 89.148 181.625 89.01 181.409 88.926C181.193 88.842 180.941 88.8 180.653 88.8C180.053 88.8 179.561 88.992 179.177 89.376C178.793 89.76 178.601 90.342 178.601 91.122ZM189.688 96V94.524H193.468C194.188 94.524 194.752 94.314 195.16 93.894C195.568 93.462 195.772 92.946 195.772 92.346C195.772 91.938 195.682 91.572 195.502 91.248C195.322 90.912 195.058 90.648 194.71 90.456C194.374 90.264 193.978 90.168 193.522 90.168H189.688V88.692H193.27C193.87 88.692 194.344 88.536 194.692 88.224C195.052 87.9 195.232 87.438 195.232 86.838C195.232 86.238 195.046 85.782 194.674 85.47C194.302 85.146 193.81 84.984 193.198 84.984H189.688V83.508H193.234C194.05 83.508 194.728 83.658 195.268 83.958C195.82 84.246 196.234 84.63 196.51 85.11C196.798 85.59 196.942 86.118 196.942 86.694C196.942 87.366 196.756 87.954 196.384 88.458C196.024 88.962 195.49 89.358 194.782 89.646L194.926 89.106C195.73 89.394 196.354 89.832 196.798 90.42C197.254 90.996 197.482 91.68 197.482 92.472C197.482 93.132 197.32 93.726 196.996 94.254C196.672 94.782 196.204 95.208 195.592 95.532C194.992 95.844 194.254 96 193.378 96H189.688ZM188.554 96V83.508H190.246V96H188.554ZM199.499 96V87.45H201.119V96H199.499ZM200.309 85.74C200.009 85.74 199.763 85.644 199.571 85.452C199.379 85.248 199.283 84.996 199.283 84.696C199.283 84.408 199.379 84.168 199.571 83.976C199.763 83.772 200.009 83.67 200.309 83.67C200.609 83.67 200.855 83.772 201.047 83.976C201.239 84.168 201.335 84.408 201.335 84.696C201.335 84.996 201.239 85.248 201.047 85.452C200.855 85.644 200.609 85.74 200.309 85.74ZM207.124 96.18C206.332 96.18 205.624 95.988 205 95.604C204.376 95.208 203.878 94.674 203.506 94.002C203.146 93.33 202.966 92.574 202.966 91.734C202.966 90.894 203.146 90.138 203.506 89.466C203.878 88.794 204.376 88.26 205 87.864C205.624 87.468 206.332 87.27 207.124 87.27C207.76 87.27 208.336 87.408 208.852 87.684C209.368 87.948 209.782 88.32 210.094 88.8C210.418 89.268 210.598 89.814 210.634 90.438V93.012C210.598 93.624 210.424 94.17 210.112 94.65C209.8 95.13 209.386 95.508 208.87 95.784C208.354 96.048 207.772 96.18 207.124 96.18ZM207.394 94.65C207.934 94.65 208.402 94.524 208.798 94.272C209.206 94.02 209.524 93.678 209.752 93.246C209.98 92.802 210.094 92.298 210.094 91.734C210.094 91.146 209.974 90.636 209.734 90.204C209.506 89.772 209.188 89.43 208.78 89.178C208.384 88.926 207.916 88.8 207.376 88.8C206.836 88.8 206.362 88.926 205.954 89.178C205.546 89.43 205.222 89.778 204.982 90.222C204.754 90.654 204.64 91.152 204.64 91.716C204.64 92.292 204.754 92.802 204.982 93.246C205.222 93.678 205.546 94.02 205.954 94.272C206.374 94.524 206.854 94.65 207.394 94.65ZM211.624 96H209.986V93.696L210.292 91.608L209.986 89.538V83.148H211.624V96ZM221.489 96.18C220.505 96.18 219.665 96 218.969 95.64C218.273 95.28 217.655 94.758 217.115 94.074L218.267 92.922C218.663 93.474 219.119 93.894 219.635 94.182C220.151 94.458 220.787 94.596 221.543 94.596C222.287 94.596 222.881 94.434 223.325 94.11C223.781 93.786 224.009 93.342 224.009 92.778C224.009 92.31 223.901 91.932 223.685 91.644C223.469 91.356 223.175 91.122 222.803 90.942C222.443 90.75 222.047 90.582 221.615 90.438C221.183 90.282 220.751 90.12 220.319 89.952C219.887 89.772 219.491 89.556 219.131 89.304C218.771 89.04 218.477 88.698 218.249 88.278C218.033 87.858 217.925 87.33 217.925 86.694C217.925 85.986 218.093 85.386 218.429 84.894C218.777 84.39 219.245 84.006 219.833 83.742C220.433 83.466 221.105 83.328 221.849 83.328C222.665 83.328 223.397 83.49 224.045 83.814C224.693 84.126 225.221 84.54 225.629 85.056L224.477 86.208C224.105 85.776 223.703 85.452 223.271 85.236C222.851 85.02 222.365 84.912 221.813 84.912C221.141 84.912 220.607 85.062 220.211 85.362C219.815 85.65 219.617 86.058 219.617 86.586C219.617 87.006 219.725 87.348 219.941 87.612C220.169 87.864 220.463 88.08 220.823 88.26C221.183 88.44 221.579 88.608 222.011 88.764C222.455 88.908 222.893 89.07 223.325 89.25C223.757 89.43 224.153 89.658 224.513 89.934C224.873 90.21 225.161 90.57 225.377 91.014C225.605 91.446 225.719 91.992 225.719 92.652C225.719 93.756 225.335 94.62 224.567 95.244C223.811 95.868 222.785 96.18 221.489 96.18ZM231.149 96.18C230.453 96.18 229.823 96.024 229.259 95.712C228.707 95.388 228.275 94.944 227.963 94.38C227.651 93.816 227.495 93.162 227.495 92.418V87.45H229.115V92.346C229.115 92.814 229.193 93.222 229.349 93.57C229.517 93.906 229.757 94.164 230.069 94.344C230.381 94.524 230.747 94.614 231.167 94.614C231.803 94.614 232.301 94.416 232.661 94.02C233.021 93.612 233.201 93.054 233.201 92.346V87.45H234.821V92.418C234.821 93.162 234.665 93.816 234.353 94.38C234.041 94.944 233.609 95.388 233.057 95.712C232.517 96.024 231.881 96.18 231.149 96.18ZM240.899 96.18C240.059 96.18 239.297 95.982 238.613 95.586C237.941 95.19 237.407 94.656 237.011 93.984C236.627 93.3 236.435 92.544 236.435 91.716C236.435 90.876 236.627 90.12 237.011 89.448C237.407 88.776 237.941 88.248 238.613 87.864C239.297 87.468 240.059 87.27 240.899 87.27C241.559 87.27 242.171 87.396 242.735 87.648C243.299 87.888 243.785 88.242 244.193 88.71L243.113 89.79C242.849 89.478 242.525 89.244 242.141 89.088C241.769 88.92 241.355 88.836 240.899 88.836C240.359 88.836 239.879 88.962 239.459 89.214C239.039 89.454 238.709 89.79 238.469 90.222C238.229 90.654 238.109 91.152 238.109 91.716C238.109 92.28 238.229 92.778 238.469 93.21C238.709 93.642 239.039 93.984 239.459 94.236C239.879 94.488 240.359 94.614 240.899 94.614C241.355 94.614 241.769 94.536 242.141 94.38C242.525 94.212 242.855 93.972 243.131 93.66L244.193 94.74C243.797 95.196 243.311 95.55 242.735 95.802C242.171 96.054 241.559 96.18 240.899 96.18ZM249.53 96.18C248.69 96.18 247.928 95.982 247.244 95.586C246.572 95.19 246.038 94.656 245.642 93.984C245.258 93.3 245.066 92.544 245.066 91.716C245.066 90.876 245.258 90.12 245.642 89.448C246.038 88.776 246.572 88.248 247.244 87.864C247.928 87.468 248.69 87.27 249.53 87.27C250.19 87.27 250.802 87.396 251.366 87.648C251.93 87.888 252.416 88.242 252.824 88.71L251.744 89.79C251.48 89.478 251.156 89.244 250.772 89.088C250.4 88.92 249.986 88.836 249.53 88.836C248.99 88.836 248.51 88.962 248.09 89.214C247.67 89.454 247.34 89.79 247.1 90.222C246.86 90.654 246.74 91.152 246.74 91.716C246.74 92.28 246.86 92.778 247.1 93.21C247.34 93.642 247.67 93.984 248.09 94.236C248.51 94.488 248.99 94.614 249.53 94.614C249.986 94.614 250.4 94.536 250.772 94.38C251.156 94.212 251.486 93.972 251.762 93.66L252.824 94.74C252.428 95.196 251.942 95.55 251.366 95.802C250.802 96.054 250.19 96.18 249.53 96.18ZM258.214 96.18C257.362 96.18 256.594 95.988 255.91 95.604C255.226 95.208 254.686 94.674 254.29 94.002C253.894 93.33 253.696 92.568 253.696 91.716C253.696 90.876 253.888 90.12 254.272 89.448C254.668 88.776 255.196 88.248 255.856 87.864C256.528 87.468 257.278 87.27 258.106 87.27C258.898 87.27 259.594 87.45 260.194 87.81C260.806 88.17 261.28 88.668 261.616 89.304C261.964 89.94 262.138 90.66 262.138 91.464C262.138 91.584 262.132 91.716 262.12 91.86C262.108 91.992 262.084 92.148 262.048 92.328H254.83V90.978H261.184L260.59 91.5C260.59 90.924 260.488 90.438 260.284 90.042C260.08 89.634 259.792 89.322 259.42 89.106C259.048 88.878 258.598 88.764 258.07 88.764C257.518 88.764 257.032 88.884 256.612 89.124C256.192 89.364 255.868 89.7 255.64 90.132C255.412 90.564 255.298 91.074 255.298 91.662C255.298 92.262 255.418 92.79 255.658 93.246C255.898 93.69 256.24 94.038 256.684 94.29C257.128 94.53 257.638 94.65 258.214 94.65C258.694 94.65 259.132 94.566 259.528 94.398C259.936 94.23 260.284 93.978 260.572 93.642L261.616 94.704C261.208 95.184 260.704 95.55 260.104 95.802C259.516 96.054 258.886 96.18 258.214 96.18ZM266.623 96.18C266.143 96.18 265.687 96.12 265.255 96C264.835 95.868 264.445 95.688 264.085 95.46C263.725 95.22 263.413 94.938 263.149 94.614L264.193 93.57C264.505 93.954 264.865 94.242 265.273 94.434C265.681 94.614 266.137 94.704 266.641 94.704C267.145 94.704 267.535 94.62 267.811 94.452C268.087 94.272 268.225 94.026 268.225 93.714C268.225 93.402 268.111 93.162 267.883 92.994C267.667 92.814 267.385 92.67 267.037 92.562C266.689 92.442 266.317 92.328 265.921 92.22C265.537 92.1 265.171 91.95 264.823 91.77C264.475 91.59 264.187 91.344 263.959 91.032C263.743 90.72 263.635 90.306 263.635 89.79C263.635 89.274 263.761 88.83 264.013 88.458C264.265 88.074 264.613 87.78 265.057 87.576C265.513 87.372 266.059 87.27 266.695 87.27C267.367 87.27 267.961 87.39 268.477 87.63C269.005 87.858 269.437 88.206 269.773 88.674L268.729 89.718C268.489 89.406 268.189 89.166 267.829 88.998C267.481 88.83 267.085 88.746 266.641 88.746C266.173 88.746 265.813 88.83 265.561 88.998C265.321 89.154 265.201 89.376 265.201 89.664C265.201 89.952 265.309 90.174 265.525 90.33C265.741 90.486 266.023 90.618 266.371 90.726C266.731 90.834 267.103 90.948 267.487 91.068C267.871 91.176 268.237 91.326 268.585 91.518C268.933 91.71 269.215 91.968 269.431 92.292C269.659 92.616 269.773 93.042 269.773 93.57C269.773 94.374 269.485 95.01 268.909 95.478C268.345 95.946 267.583 96.18 266.623 96.18ZM274.304 96.18C273.824 96.18 273.368 96.12 272.936 96C272.516 95.868 272.126 95.688 271.766 95.46C271.406 95.22 271.094 94.938 270.83 94.614L271.874 93.57C272.186 93.954 272.546 94.242 272.954 94.434C273.362 94.614 273.818 94.704 274.322 94.704C274.826 94.704 275.216 94.62 275.492 94.452C275.768 94.272 275.906 94.026 275.906 93.714C275.906 93.402 275.792 93.162 275.564 92.994C275.348 92.814 275.066 92.67 274.718 92.562C274.37 92.442 273.998 92.328 273.602 92.22C273.218 92.1 272.852 91.95 272.504 91.77C272.156 91.59 271.868 91.344 271.64 91.032C271.424 90.72 271.316 90.306 271.316 89.79C271.316 89.274 271.442 88.83 271.694 88.458C271.946 88.074 272.294 87.78 272.738 87.576C273.194 87.372 273.74 87.27 274.376 87.27C275.048 87.27 275.642 87.39 276.158 87.63C276.686 87.858 277.118 88.206 277.454 88.674L276.41 89.718C276.17 89.406 275.87 89.166 275.51 88.998C275.162 88.83 274.766 88.746 274.322 88.746C273.854 88.746 273.494 88.83 273.242 88.998C273.002 89.154 272.882 89.376 272.882 89.664C272.882 89.952 272.99 90.174 273.206 90.33C273.422 90.486 273.704 90.618 274.052 90.726C274.412 90.834 274.784 90.948 275.168 91.068C275.552 91.176 275.918 91.326 276.266 91.518C276.614 91.71 276.896 91.968 277.112 92.292C277.34 92.616 277.454 93.042 277.454 93.57C277.454 94.374 277.166 95.01 276.59 95.478C276.026 95.946 275.264 96.18 274.304 96.18ZM283.3 96V83.508H284.488L284.992 85.47V96H283.3ZM291.94 96L284.272 85.758L284.488 83.508L292.174 93.732L291.94 96ZM291.94 96L291.436 94.146V83.508H293.128V96H291.94ZM299.752 96.18C298.9 96.18 298.132 95.988 297.448 95.604C296.764 95.208 296.224 94.674 295.828 94.002C295.432 93.33 295.234 92.568 295.234 91.716C295.234 90.876 295.426 90.12 295.81 89.448C296.206 88.776 296.734 88.248 297.394 87.864C298.066 87.468 298.816 87.27 299.644 87.27C300.436 87.27 301.132 87.45 301.732 87.81C302.344 88.17 302.818 88.668 303.154 89.304C303.502 89.94 303.676 90.66 303.676 91.464C303.676 91.584 303.67 91.716 303.658 91.86C303.646 91.992 303.622 92.148 303.586 92.328H296.368V90.978H302.722L302.128 91.5C302.128 90.924 302.026 90.438 301.822 90.042C301.618 89.634 301.33 89.322 300.958 89.106C300.586 88.878 300.136 88.764 299.608 88.764C299.056 88.764 298.57 88.884 298.15 89.124C297.73 89.364 297.406 89.7 297.178 90.132C296.95 90.564 296.836 91.074 296.836 91.662C296.836 92.262 296.956 92.79 297.196 93.246C297.436 93.69 297.778 94.038 298.222 94.29C298.666 94.53 299.176 94.65 299.752 94.65C300.232 94.65 300.67 94.566 301.066 94.398C301.474 94.23 301.822 93.978 302.11 93.642L303.154 94.704C302.746 95.184 302.242 95.55 301.642 95.802C301.054 96.054 300.424 96.18 299.752 96.18ZM306.492 96V83.868H308.112V96H306.492ZM304.386 88.926V87.45H310.218V88.926H304.386ZM314.253 96L310.869 87.45H312.561L315.009 94.11H314.469L316.899 87.45H317.835L320.265 94.11H319.725L322.173 87.45H323.865L320.499 96H319.545L317.079 89.538H317.673L315.189 96H314.253ZM328.965 96.18C328.125 96.18 327.369 95.982 326.697 95.586C326.025 95.19 325.491 94.656 325.095 93.984C324.699 93.3 324.501 92.538 324.501 91.698C324.501 90.87 324.699 90.126 325.095 89.466C325.491 88.794 326.025 88.26 326.697 87.864C327.369 87.468 328.125 87.27 328.965 87.27C329.793 87.27 330.543 87.468 331.215 87.864C331.899 88.248 332.439 88.776 332.835 89.448C333.231 90.12 333.429 90.87 333.429 91.698C333.429 92.538 333.231 93.3 332.835 93.984C332.439 94.656 331.899 95.19 331.215 95.586C330.543 95.982 329.793 96.18 328.965 96.18ZM328.965 94.614C329.505 94.614 329.985 94.488 330.405 94.236C330.825 93.984 331.155 93.642 331.395 93.21C331.635 92.766 331.755 92.262 331.755 91.698C331.755 91.146 331.629 90.654 331.377 90.222C331.137 89.79 330.807 89.454 330.387 89.214C329.979 88.962 329.505 88.836 328.965 88.836C328.425 88.836 327.945 88.962 327.525 89.214C327.105 89.454 326.775 89.79 326.535 90.222C326.295 90.654 326.175 91.146 326.175 91.698C326.175 92.262 326.295 92.766 326.535 93.21C326.775 93.642 327.105 93.984 327.525 94.236C327.945 94.488 328.425 94.614 328.965 94.614ZM335.254 96V87.45H336.874V96H335.254ZM336.874 91.122L336.262 90.852C336.262 89.76 336.514 88.89 337.018 88.242C337.522 87.594 338.248 87.27 339.196 87.27C339.628 87.27 340.018 87.348 340.366 87.504C340.714 87.648 341.038 87.894 341.338 88.242L340.276 89.34C340.096 89.148 339.898 89.01 339.682 88.926C339.466 88.842 339.214 88.8 338.926 88.8C338.326 88.8 337.834 88.992 337.45 89.376C337.066 89.76 336.874 90.342 336.874 91.122ZM347.951 96L343.955 91.626L347.915 87.45H349.877L345.467 92.058L345.539 91.122L350.039 96H347.951ZM342.479 96V83.148H344.099V96H342.479Z" fill="#0D2065"/>
</svg>
