<svg width="280" height="141" viewBox="0 0 280 141" fill="none" xmlns="http://www.w3.org/2000/svg">
<path d="M93.4255 62.9366C105.728 76.0787 105.048 96.7058 91.9056 109.009C78.7635 121.311 58.1364 120.631 45.8336 107.489C33.5309 94.3465 34.2114 73.7194 47.3535 61.4167C60.4956 49.114 81.1228 49.7945 93.4255 62.9366ZM49.8755 103.705C60.0886 114.615 77.212 115.18 88.1219 104.967C99.0317 94.7536 99.5966 77.6302 89.3836 66.7203C79.1706 55.8105 62.0471 55.2456 51.1373 65.4586C40.2274 75.6716 39.6625 92.7951 49.8755 103.705Z" fill="#063BFF"/>
<path d="M106.348 36.2203C125.074 56.2242 124.038 87.6212 104.034 106.347C84.0301 125.074 52.6331 124.038 33.9069 104.034C15.1806 84.0301 16.2164 52.6331 36.2203 33.9068C56.2242 15.1806 87.6213 16.2164 106.348 36.2203ZM38.6089 99.6323C54.9042 117.039 82.2253 117.941 99.6324 101.645C117.039 85.3502 117.941 58.0291 101.645 40.622C85.3502 23.2149 58.0291 22.3136 40.622 38.6089C23.2149 54.9041 22.3136 82.2253 38.6089 99.6323Z" fill="#0D2065"/>
<rect x="50.5122" y="78.204" width="38.6531" height="15.5766" rx="4" fill="#0D2065"/>
<rect x="67.2427" y="91.4729" width="5.1922" height="27.6918" fill="#0D2065"/>
<rect x="81.0884" y="74.1655" width="3.46147" height="25.961" fill="white"/>
<rect x="55.1274" y="74.1655" width="3.46147" height="25.961" fill="white"/>
<path d="M135.16 70V66.67H140.65C141.63 66.67 142.39 66.37 142.93 65.77C143.49 65.17 143.77 64.46 143.77 63.64C143.77 63.08 143.65 62.57 143.41 62.11C143.17 61.65 142.81 61.29 142.33 61.03C141.87 60.75 141.31 60.61 140.65 60.61H135.16V57.31H140.2C141.04 57.31 141.71 57.1 142.21 56.68C142.73 56.26 142.99 55.63 142.99 54.79C142.99 53.93 142.73 53.29 142.21 52.87C141.71 52.45 141.04 52.24 140.2 52.24H135.16V48.91H140.68C142.08 48.91 143.25 49.17 144.19 49.69C145.15 50.19 145.87 50.86 146.35 51.7C146.83 52.52 147.07 53.42 147.07 54.4C147.07 55.6 146.7 56.64 145.96 57.52C145.24 58.38 144.18 59.02 142.78 59.44L142.96 58.12C144.52 58.56 145.72 59.29 146.56 60.31C147.42 61.31 147.85 62.52 147.85 63.94C147.85 65.06 147.57 66.08 147.01 67C146.47 67.9 145.67 68.63 144.61 69.19C143.57 69.73 142.3 70 140.8 70H135.16ZM132.16 70V48.91H136.21V70H132.16ZM150.666 70V55.51H154.626V70H150.666ZM152.646 53.17C152.006 53.17 151.476 52.96 151.056 52.54C150.636 52.1 150.426 51.56 150.426 50.92C150.426 50.3 150.636 49.77 151.056 49.33C151.476 48.89 152.006 48.67 152.646 48.67C153.306 48.67 153.836 48.89 154.236 49.33C154.656 49.77 154.866 50.3 154.866 50.92C154.866 51.56 154.656 52.1 154.236 52.54C153.836 52.96 153.306 53.17 152.646 53.17ZM164.227 70.3C162.887 70.3 161.687 69.97 160.627 69.31C159.567 68.65 158.727 67.75 158.107 66.61C157.507 65.47 157.207 64.19 157.207 62.77C157.207 61.33 157.507 60.04 158.107 58.9C158.727 57.76 159.557 56.86 160.597 56.2C161.657 55.54 162.867 55.21 164.227 55.21C165.267 55.21 166.197 55.42 167.017 55.84C167.857 56.26 168.527 56.85 169.027 57.61C169.547 58.35 169.827 59.19 169.867 60.13V65.29C169.827 66.23 169.557 67.08 169.057 67.84C168.557 68.6 167.887 69.2 167.047 69.64C166.207 70.08 165.267 70.3 164.227 70.3ZM164.887 66.67C165.627 66.67 166.267 66.51 166.807 66.19C167.367 65.85 167.797 65.39 168.097 64.81C168.417 64.21 168.577 63.52 168.577 62.74C168.577 61.98 168.417 61.31 168.097 60.73C167.797 60.13 167.367 59.67 166.807 59.35C166.267 59.01 165.637 58.84 164.917 58.84C164.177 58.84 163.527 59.01 162.967 59.35C162.427 59.69 161.997 60.15 161.677 60.73C161.377 61.31 161.227 61.98 161.227 62.74C161.227 63.52 161.377 64.21 161.677 64.81C161.997 65.39 162.437 65.85 162.997 66.19C163.557 66.51 164.187 66.67 164.887 66.67ZM172.267 70H168.367V66.1L168.997 62.56L168.337 59.08V48.31H172.267V70Z" fill="#0D2065"/>
<path d="M176.164 70V48.91H180.244V70H176.164ZM179.164 70V66.37H189.904V70H179.164ZM198.843 70.3C197.383 70.3 196.063 69.97 194.883 69.31C193.723 68.63 192.793 67.72 192.093 66.58C191.413 65.42 191.073 64.13 191.073 62.71C191.073 61.29 191.413 60.02 192.093 58.9C192.773 57.76 193.703 56.86 194.883 56.2C196.063 55.52 197.373 55.18 198.813 55.18C200.293 55.18 201.613 55.52 202.773 56.2C203.953 56.86 204.883 57.76 205.563 58.9C206.243 60.02 206.583 61.29 206.583 62.71C206.583 64.13 206.243 65.42 205.563 66.58C204.883 67.72 203.953 68.63 202.773 69.31C201.613 69.97 200.303 70.3 198.843 70.3ZM198.813 66.64C199.553 66.64 200.203 66.48 200.763 66.16C201.343 65.82 201.783 65.36 202.083 64.78C202.403 64.18 202.563 63.5 202.563 62.74C202.563 61.98 202.403 61.31 202.083 60.73C201.763 60.15 201.323 59.7 200.763 59.38C200.203 59.04 199.553 58.87 198.813 58.87C198.093 58.87 197.453 59.04 196.893 59.38C196.333 59.7 195.893 60.15 195.573 60.73C195.253 61.31 195.093 61.98 195.093 62.74C195.093 63.5 195.253 64.18 195.573 64.78C195.893 65.36 196.333 65.82 196.893 66.16C197.453 66.48 198.093 66.64 198.813 66.64ZM215.173 76.42C213.633 76.42 212.273 76.14 211.093 75.58C209.913 75.04 208.973 74.27 208.273 73.27L210.763 70.78C211.323 71.44 211.943 71.94 212.623 72.28C213.323 72.64 214.163 72.82 215.143 72.82C216.363 72.82 217.323 72.51 218.023 71.89C218.743 71.27 219.103 70.41 219.103 69.31V65.68L219.763 62.5L219.133 59.32V55.51H223.033V69.25C223.033 70.69 222.693 71.94 222.013 73C221.353 74.08 220.433 74.92 219.253 75.52C218.073 76.12 216.713 76.42 215.173 76.42ZM214.993 69.61C213.693 69.61 212.523 69.3 211.483 68.68C210.443 68.04 209.623 67.17 209.023 66.07C208.443 64.97 208.153 63.74 208.153 62.38C208.153 61.02 208.443 59.8 209.023 58.72C209.623 57.64 210.443 56.79 211.483 56.17C212.523 55.53 213.693 55.21 214.993 55.21C216.073 55.21 217.023 55.42 217.843 55.84C218.683 56.26 219.343 56.84 219.823 57.58C220.303 58.3 220.563 59.15 220.603 60.13V64.69C220.563 65.65 220.293 66.51 219.793 67.27C219.313 68.01 218.653 68.59 217.813 69.01C216.993 69.41 216.053 69.61 214.993 69.61ZM215.773 66.04C216.493 66.04 217.113 65.89 217.633 65.59C218.173 65.27 218.593 64.84 218.893 64.3C219.193 63.74 219.343 63.11 219.343 62.41C219.343 61.69 219.193 61.06 218.893 60.52C218.593 59.98 218.173 59.56 217.633 59.26C217.113 58.94 216.493 58.78 215.773 58.78C215.053 58.78 214.423 58.94 213.883 59.26C213.343 59.56 212.923 59.99 212.623 60.55C212.323 61.09 212.173 61.71 212.173 62.41C212.173 63.09 212.323 63.71 212.623 64.27C212.923 64.81 213.343 65.24 213.883 65.56C214.423 65.88 215.053 66.04 215.773 66.04ZM233.296 70.3C231.836 70.3 230.516 69.97 229.336 69.31C228.176 68.63 227.246 67.72 226.546 66.58C225.866 65.42 225.526 64.13 225.526 62.71C225.526 61.29 225.866 60.02 226.546 58.9C227.226 57.76 228.156 56.86 229.336 56.2C230.516 55.52 231.826 55.18 233.266 55.18C234.746 55.18 236.066 55.52 237.226 56.2C238.406 56.86 239.336 57.76 240.016 58.9C240.696 60.02 241.036 61.29 241.036 62.71C241.036 64.13 240.696 65.42 240.016 66.58C239.336 67.72 238.406 68.63 237.226 69.31C236.066 69.97 234.756 70.3 233.296 70.3ZM233.266 66.64C234.006 66.64 234.656 66.48 235.216 66.16C235.796 65.82 236.236 65.36 236.536 64.78C236.856 64.18 237.016 63.5 237.016 62.74C237.016 61.98 236.856 61.31 236.536 60.73C236.216 60.15 235.776 59.7 235.216 59.38C234.656 59.04 234.006 58.87 233.266 58.87C232.546 58.87 231.906 59.04 231.346 59.38C230.786 59.7 230.346 60.15 230.026 60.73C229.706 61.31 229.546 61.98 229.546 62.74C229.546 63.5 229.706 64.18 230.026 64.78C230.346 65.36 230.786 65.82 231.346 66.16C231.906 66.48 232.546 66.64 233.266 66.64Z" fill="#063BFF"/>
<path d="M130.358 83.8182H131.77L134.594 88.571H134.713L137.537 83.8182H138.949L135.27 89.804V94H134.037V89.804L130.358 83.8182ZM142.407 94.1591C141.717 94.1591 141.112 93.995 140.592 93.6669C140.075 93.3388 139.671 92.8797 139.379 92.2898C139.091 91.6998 138.946 91.0104 138.946 90.2216C138.946 89.4261 139.091 88.7318 139.379 88.1385C139.671 87.5452 140.075 87.0845 140.592 86.7564C141.112 86.4283 141.717 86.2642 142.407 86.2642C143.096 86.2642 143.699 86.4283 144.216 86.7564C144.737 87.0845 145.141 87.5452 145.429 88.1385C145.721 88.7318 145.867 89.4261 145.867 90.2216C145.867 91.0104 145.721 91.6998 145.429 92.2898C145.141 92.8797 144.737 93.3388 144.216 93.6669C143.699 93.995 143.096 94.1591 142.407 94.1591ZM142.407 93.1051C142.93 93.1051 143.361 92.9709 143.699 92.7024C144.037 92.4339 144.288 92.081 144.45 91.6435C144.612 91.206 144.694 90.732 144.694 90.2216C144.694 89.7112 144.612 89.2356 144.45 88.7947C144.288 88.3539 144.037 87.9976 143.699 87.7259C143.361 87.4541 142.93 87.3182 142.407 87.3182C141.883 87.3182 141.452 87.4541 141.114 87.7259C140.776 87.9976 140.526 88.3539 140.363 88.7947C140.201 89.2356 140.12 89.7112 140.12 90.2216C140.12 90.732 140.201 91.206 140.363 91.6435C140.526 92.081 140.776 92.4339 141.114 92.7024C141.452 92.9709 141.883 93.1051 142.407 93.1051ZM152.47 90.8778V86.3636H153.644V94H152.47V92.7074H152.391C152.212 93.0952 151.933 93.425 151.556 93.6967C151.178 93.9652 150.7 94.0994 150.124 94.0994C149.646 94.0994 149.222 93.995 148.851 93.7862C148.48 93.5741 148.188 93.2559 147.976 92.8317C147.764 92.4041 147.658 91.8655 147.658 91.2159V86.3636H148.831V91.1364C148.831 91.6932 148.987 92.1373 149.298 92.4688C149.613 92.8002 150.014 92.9659 150.502 92.9659C150.793 92.9659 151.09 92.8913 151.392 92.7422C151.696 92.593 151.952 92.3643 152.157 92.0561C152.366 91.7479 152.47 91.3551 152.47 90.8778ZM155.793 94V86.3636H156.926V87.517H157.006C157.145 87.1392 157.397 86.8326 157.761 86.5973C158.126 86.362 158.537 86.2443 158.994 86.2443C159.08 86.2443 159.188 86.246 159.317 86.2493C159.447 86.2526 159.545 86.2576 159.611 86.2642V87.4574C159.571 87.4474 159.48 87.4325 159.337 87.4126C159.198 87.3894 159.051 87.3778 158.895 87.3778C158.524 87.3778 158.192 87.4557 157.901 87.6115C157.612 87.764 157.384 87.9761 157.214 88.2479C157.049 88.5163 156.966 88.8229 156.966 89.1676V94H155.793ZM170.666 86.3636C170.607 85.8598 170.365 85.4688 169.941 85.1903C169.516 84.9119 168.996 84.7727 168.379 84.7727C167.929 84.7727 167.534 84.8456 167.196 84.9915C166.861 85.1373 166.6 85.3378 166.411 85.593C166.225 85.8482 166.132 86.1383 166.132 86.4631C166.132 86.7348 166.197 86.9685 166.326 87.1641C166.459 87.3563 166.628 87.517 166.833 87.6463C167.039 87.7723 167.254 87.8767 167.48 87.9595C167.705 88.0391 167.912 88.1037 168.101 88.1534L169.135 88.4318C169.4 88.5014 169.695 88.5975 170.02 88.7202C170.348 88.8428 170.661 89.0102 170.96 89.2223C171.261 89.4311 171.51 89.6996 171.705 90.0277C171.901 90.3558 171.999 90.7585 171.999 91.2358C171.999 91.786 171.855 92.2831 171.566 92.7273C171.281 93.1714 170.864 93.5244 170.313 93.7862C169.767 94.0481 169.102 94.179 168.32 94.179C167.591 94.179 166.959 94.0613 166.426 93.826C165.895 93.5907 165.478 93.2625 165.173 92.8416C164.871 92.4207 164.7 91.9318 164.661 91.375H165.933C165.967 91.7595 166.096 92.0777 166.321 92.3295C166.55 92.5781 166.838 92.7637 167.186 92.8864C167.538 93.0057 167.915 93.0653 168.32 93.0653C168.79 93.0653 169.213 92.9891 169.588 92.8366C169.962 92.6809 170.259 92.4654 170.477 92.1903C170.696 91.9119 170.806 91.5871 170.806 91.2159C170.806 90.8778 170.711 90.6027 170.522 90.3906C170.333 90.1785 170.085 90.0062 169.776 89.8736C169.468 89.741 169.135 89.625 168.777 89.5256L167.524 89.1676C166.729 88.9389 166.099 88.6125 165.635 88.1882C165.171 87.764 164.939 87.2088 164.939 86.5227C164.939 85.9527 165.093 85.4555 165.401 85.0312C165.713 84.6037 166.131 84.2723 166.654 84.0369C167.181 83.7983 167.77 83.679 168.419 83.679C169.075 83.679 169.659 83.7966 170.169 84.032C170.68 84.264 171.084 84.5821 171.382 84.9865C171.684 85.3909 171.843 85.8499 171.86 86.3636H170.666ZM178.679 90.8778V86.3636H179.853V94H178.679V92.7074H178.6C178.421 93.0952 178.142 93.425 177.765 93.6967C177.387 93.9652 176.909 94.0994 176.333 94.0994C175.855 94.0994 175.431 93.995 175.06 93.7862C174.689 93.5741 174.397 93.2559 174.185 92.8317C173.973 92.4041 173.867 91.8655 173.867 91.2159V86.3636H175.04V91.1364C175.04 91.6932 175.196 92.1373 175.507 92.4688C175.822 92.8002 176.223 92.9659 176.711 92.9659C177.002 92.9659 177.299 92.8913 177.6 92.7422C177.905 92.593 178.161 92.3643 178.366 92.0561C178.575 91.7479 178.679 91.3551 178.679 90.8778ZM185.104 94.1591C184.388 94.1591 183.771 93.9901 183.254 93.652C182.737 93.3139 182.34 92.8482 182.061 92.255C181.783 91.6617 181.644 90.9839 181.644 90.2216C181.644 89.446 181.786 88.7616 182.071 88.1683C182.36 87.5717 182.761 87.1061 183.274 86.7713C183.791 86.4332 184.395 86.2642 185.084 86.2642C185.621 86.2642 186.105 86.3636 186.536 86.5625C186.967 86.7614 187.32 87.0398 187.595 87.3977C187.87 87.7557 188.04 88.1733 188.107 88.6506H186.933C186.844 88.3026 186.645 87.9943 186.337 87.7259C186.032 87.4541 185.621 87.3182 185.104 87.3182C184.646 87.3182 184.245 87.4375 183.901 87.6761C183.559 87.9115 183.293 88.2446 183.1 88.6754C182.911 89.103 182.817 89.6051 182.817 90.1818C182.817 90.7718 182.91 91.2855 183.095 91.723C183.284 92.1605 183.549 92.5002 183.891 92.7422C184.235 92.9841 184.64 93.1051 185.104 93.1051C185.409 93.1051 185.686 93.0521 185.934 92.946C186.183 92.84 186.393 92.6875 186.566 92.4886C186.738 92.2898 186.86 92.0511 186.933 91.7727H188.107C188.04 92.2235 187.876 92.6295 187.615 92.9908C187.356 93.3487 187.013 93.6338 186.585 93.8459C186.161 94.0547 185.667 94.1591 185.104 94.1591ZM192.924 94.1591C192.208 94.1591 191.592 93.9901 191.075 93.652C190.558 93.3139 190.16 92.8482 189.882 92.255C189.603 91.6617 189.464 90.9839 189.464 90.2216C189.464 89.446 189.606 88.7616 189.892 88.1683C190.18 87.5717 190.581 87.1061 191.095 86.7713C191.612 86.4332 192.215 86.2642 192.904 86.2642C193.441 86.2642 193.925 86.3636 194.356 86.5625C194.787 86.7614 195.14 87.0398 195.415 87.3977C195.69 87.7557 195.861 88.1733 195.927 88.6506H194.754C194.664 88.3026 194.465 87.9943 194.157 87.7259C193.852 87.4541 193.441 87.3182 192.924 87.3182C192.467 87.3182 192.066 87.4375 191.721 87.6761C191.38 87.9115 191.113 88.2446 190.921 88.6754C190.732 89.103 190.637 89.6051 190.637 90.1818C190.637 90.7718 190.73 91.2855 190.916 91.723C191.105 92.1605 191.37 92.5002 191.711 92.7422C192.056 92.9841 192.46 93.1051 192.924 93.1051C193.229 93.1051 193.506 93.0521 193.754 92.946C194.003 92.84 194.213 92.6875 194.386 92.4886C194.558 92.2898 194.681 92.0511 194.754 91.7727H195.927C195.861 92.2235 195.697 92.6295 195.435 92.9908C195.176 93.3487 194.833 93.6338 194.406 93.8459C193.981 94.0547 193.488 94.1591 192.924 94.1591ZM200.844 94.1591C200.108 94.1591 199.473 93.9967 198.94 93.6719C198.41 93.3438 198 92.8864 197.712 92.2997C197.427 91.7098 197.284 91.0237 197.284 90.2415C197.284 89.4593 197.427 88.7699 197.712 88.1733C198 87.5734 198.401 87.1061 198.915 86.7713C199.432 86.4332 200.035 86.2642 200.725 86.2642C201.122 86.2642 201.515 86.3305 201.903 86.4631C202.291 86.5956 202.644 86.8111 202.962 87.1094C203.28 87.4044 203.534 87.7955 203.722 88.2827C203.911 88.7699 204.006 89.3698 204.006 90.0824V90.5795H198.119V89.5653H202.813C202.813 89.1345 202.727 88.75 202.554 88.4119C202.385 88.0739 202.143 87.8071 201.828 87.6115C201.517 87.416 201.149 87.3182 200.725 87.3182C200.257 87.3182 199.853 87.4342 199.512 87.6662C199.173 87.8949 198.913 88.1932 198.731 88.5611C198.549 88.929 198.458 89.3234 198.458 89.7443V90.4205C198.458 90.9972 198.557 91.486 198.756 91.8871C198.958 92.2848 199.238 92.5881 199.596 92.7969C199.954 93.0024 200.37 93.1051 200.844 93.1051C201.152 93.1051 201.431 93.062 201.679 92.9759C201.931 92.8864 202.148 92.7538 202.33 92.5781C202.513 92.3991 202.654 92.1771 202.753 91.9119L203.887 92.2301C203.767 92.6146 203.567 92.9527 203.285 93.2443C203.003 93.5327 202.655 93.758 202.241 93.9205C201.827 94.0795 201.361 94.1591 200.844 94.1591ZM211.2 88.0739L210.146 88.3722C210.079 88.1965 209.982 88.0258 209.852 87.8601C209.727 87.6911 209.554 87.5518 209.335 87.4425C209.117 87.3331 208.837 87.2784 208.495 87.2784C208.028 87.2784 207.638 87.3861 207.327 87.6016C207.019 87.8137 206.865 88.0838 206.865 88.4119C206.865 88.7036 206.971 88.9339 207.183 89.103C207.395 89.272 207.726 89.4129 208.177 89.5256L209.311 89.804C209.993 89.9697 210.502 90.2232 210.837 90.5646C211.172 90.9027 211.339 91.3385 211.339 91.8722C211.339 92.3097 211.213 92.7008 210.961 93.0455C210.713 93.3902 210.365 93.6619 209.917 93.8608C209.47 94.0597 208.949 94.1591 208.356 94.1591C207.577 94.1591 206.932 93.9901 206.422 93.652C205.912 93.3139 205.588 92.8201 205.453 92.1705L206.566 91.892C206.672 92.303 206.873 92.6113 207.168 92.8168C207.466 93.0223 207.856 93.125 208.336 93.125C208.883 93.125 209.317 93.009 209.639 92.777C209.963 92.5417 210.126 92.2599 210.126 91.9318C210.126 91.6667 210.033 91.4446 209.847 91.2656C209.662 91.0833 209.377 90.9474 208.992 90.858L207.72 90.5597C207.02 90.3939 206.507 90.1371 206.178 89.7891C205.854 89.4377 205.691 88.9986 205.691 88.4716C205.691 88.0407 205.812 87.6596 206.054 87.3281C206.299 86.9967 206.633 86.7365 207.053 86.5476C207.478 86.3587 207.958 86.2642 208.495 86.2642C209.251 86.2642 209.844 86.4299 210.275 86.7614C210.709 87.0928 211.017 87.5303 211.2 88.0739ZM218.514 88.0739L217.46 88.3722C217.394 88.1965 217.296 88.0258 217.167 87.8601C217.041 87.6911 216.869 87.5518 216.65 87.4425C216.431 87.3331 216.151 87.2784 215.81 87.2784C215.342 87.2784 214.953 87.3861 214.641 87.6016C214.333 87.8137 214.179 88.0838 214.179 88.4119C214.179 88.7036 214.285 88.9339 214.497 89.103C214.709 89.272 215.041 89.4129 215.491 89.5256L216.625 89.804C217.308 89.9697 217.817 90.2232 218.151 90.5646C218.486 90.9027 218.653 91.3385 218.653 91.8722C218.653 92.3097 218.527 92.7008 218.276 93.0455C218.027 93.3902 217.679 93.6619 217.232 93.8608C216.784 94.0597 216.264 94.1591 215.67 94.1591C214.892 94.1591 214.247 93.9901 213.737 93.652C213.226 93.3139 212.903 92.8201 212.767 92.1705L213.881 91.892C213.987 92.303 214.187 92.6113 214.482 92.8168C214.781 93.0223 215.17 93.125 215.651 93.125C216.197 93.125 216.632 93.009 216.953 92.777C217.278 92.5417 217.44 92.2599 217.44 91.9318C217.44 91.6667 217.348 91.4446 217.162 91.2656C216.976 91.0833 216.691 90.9474 216.307 90.858L215.034 90.5597C214.335 90.3939 213.821 90.1371 213.493 89.7891C213.168 89.4377 213.006 88.9986 213.006 88.4716C213.006 88.0407 213.127 87.6596 213.369 87.3281C213.614 86.9967 213.947 86.7365 214.368 86.5476C214.792 86.3587 215.273 86.2642 215.81 86.2642C216.565 86.2642 217.159 86.4299 217.589 86.7614C218.024 87.0928 218.332 87.5303 218.514 88.0739ZM232.59 83.8182V94H231.397L225.849 86.0057H225.749V94H224.516V83.8182H225.709L231.278 91.8324H231.377V83.8182H232.59ZM238.1 94.1591C237.364 94.1591 236.729 93.9967 236.196 93.6719C235.665 93.3438 235.256 92.8864 234.968 92.2997C234.683 91.7098 234.54 91.0237 234.54 90.2415C234.54 89.4593 234.683 88.7699 234.968 88.1733C235.256 87.5734 235.657 87.1061 236.171 86.7713C236.688 86.4332 237.291 86.2642 237.98 86.2642C238.378 86.2642 238.771 86.3305 239.159 86.4631C239.547 86.5956 239.9 86.8111 240.218 87.1094C240.536 87.4044 240.789 87.7955 240.978 88.2827C241.167 88.7699 241.262 89.3698 241.262 90.0824V90.5795H235.375V89.5653H240.069C240.069 89.1345 239.982 88.75 239.81 88.4119C239.641 88.0739 239.399 87.8071 239.084 87.6115C238.773 87.416 238.405 87.3182 237.98 87.3182C237.513 87.3182 237.109 87.4342 236.767 87.6662C236.429 87.8949 236.169 88.1932 235.987 88.5611C235.805 88.929 235.713 89.3234 235.713 89.7443V90.4205C235.713 90.9972 235.813 91.486 236.012 91.8871C236.214 92.2848 236.494 92.5881 236.852 92.7969C237.21 93.0024 237.626 93.1051 238.1 93.1051C238.408 93.1051 238.686 93.062 238.935 92.9759C239.187 92.8864 239.404 92.7538 239.586 92.5781C239.769 92.3991 239.909 92.1771 240.009 91.9119L241.142 92.2301C241.023 92.6146 240.823 92.9527 240.541 93.2443C240.259 93.5327 239.911 93.758 239.497 93.9205C239.083 94.0795 238.617 94.1591 238.1 94.1591ZM246.368 86.3636V87.358H242.41V86.3636H246.368ZM243.564 84.5341H244.737V91.8125C244.737 92.1439 244.785 92.3925 244.881 92.5582C244.98 92.7206 245.106 92.83 245.259 92.8864C245.415 92.9394 245.579 92.9659 245.751 92.9659C245.88 92.9659 245.986 92.9593 246.069 92.946C246.152 92.9295 246.218 92.9162 246.268 92.9062L246.507 93.9602C246.427 93.9901 246.316 94.0199 246.174 94.0497C246.031 94.0829 245.85 94.0994 245.632 94.0994C245.3 94.0994 244.975 94.0282 244.657 93.8857C244.342 93.7431 244.081 93.526 243.872 93.2344C243.666 92.9427 243.564 92.5748 243.564 92.1307V84.5341ZM249.863 94L247.536 86.3636H248.769L250.419 92.2102H250.499L252.13 86.3636H253.382L254.993 92.1903H255.073L256.723 86.3636H257.956L255.63 94H254.476L252.806 88.1335H252.686L251.016 94H249.863ZM262.35 94.1591C261.661 94.1591 261.056 93.995 260.535 93.6669C260.018 93.3388 259.614 92.8797 259.322 92.2898C259.034 91.6998 258.89 91.0104 258.89 90.2216C258.89 89.4261 259.034 88.7318 259.322 88.1385C259.614 87.5452 260.018 87.0845 260.535 86.7564C261.056 86.4283 261.661 86.2642 262.35 86.2642C263.039 86.2642 263.643 86.4283 264.16 86.7564C264.68 87.0845 265.084 87.5452 265.373 88.1385C265.664 88.7318 265.81 89.4261 265.81 90.2216C265.81 91.0104 265.664 91.6998 265.373 92.2898C265.084 92.8797 264.68 93.3388 264.16 93.6669C263.643 93.995 263.039 94.1591 262.35 94.1591ZM262.35 93.1051C262.874 93.1051 263.305 92.9709 263.643 92.7024C263.981 92.4339 264.231 92.081 264.393 91.6435C264.556 91.206 264.637 90.732 264.637 90.2216C264.637 89.7112 264.556 89.2356 264.393 88.7947C264.231 88.3539 263.981 87.9976 263.643 87.7259C263.305 87.4541 262.874 87.3182 262.35 87.3182C261.826 87.3182 261.395 87.4541 261.057 87.7259C260.719 87.9976 260.469 88.3539 260.307 88.7947C260.144 89.2356 260.063 89.7112 260.063 90.2216C260.063 90.732 260.144 91.206 260.307 91.6435C260.469 92.081 260.719 92.4339 261.057 92.7024C261.395 92.9709 261.826 93.1051 262.35 93.1051ZM267.601 94V86.3636H268.735V87.517H268.814C268.953 87.1392 269.205 86.8326 269.57 86.5973C269.935 86.362 270.346 86.2443 270.803 86.2443C270.889 86.2443 270.997 86.246 271.126 86.2493C271.255 86.2526 271.353 86.2576 271.419 86.2642V87.4574C271.38 87.4474 271.288 87.4325 271.146 87.4126C271.007 87.3894 270.859 87.3778 270.703 87.3778C270.332 87.3778 270.001 87.4557 269.709 87.6115C269.421 87.764 269.192 87.9761 269.023 88.2479C268.857 88.5163 268.775 88.8229 268.775 89.1676V94H267.601ZM273.904 91.2159L273.884 89.7642H274.123L277.464 86.3636H278.915L275.356 89.9631H275.256L273.904 91.2159ZM272.81 94V83.8182H273.983V94H272.81ZM277.662 94L274.68 90.2216L275.515 89.4062L279.154 94H277.662Z" fill="#0D2065" fill-opacity="0.7"/>
</svg>
