<svg width="183" height="29" viewBox="0 0 183 29" fill="none" xmlns="http://www.w3.org/2000/svg">
<path d="M3.16 13.18V10H8.05C9.05 10 9.82 9.75 10.36 9.25C10.92 8.73 11.2 8.02 11.2 7.12C11.2 6.3 10.92 5.62 10.36 5.08C9.82 4.52 9.05 4.24 8.05 4.24H3.16V0.91H8.41C9.77 0.91 10.96 1.18 11.98 1.72C13.02 2.24 13.82 2.96 14.38 3.88C14.96 4.8 15.25 5.86 15.25 7.06C15.25 8.3 14.96 9.38 14.38 10.3C13.82 11.2 13.02 11.91 11.98 12.43C10.94 12.93 9.73 13.18 8.35 13.18H3.16ZM0.16 22V0.91H4.24V22H0.16ZM11.68 22L4.72 12.88L8.47 11.71L16.63 22H11.68ZM24.9191 22.3C23.4591 22.3 22.1391 21.97 20.9591 21.31C19.7991 20.63 18.8691 19.72 18.1691 18.58C17.4891 17.42 17.1491 16.13 17.1491 14.71C17.1491 13.29 17.4891 12.02 18.1691 10.9C18.8491 9.76 19.7791 8.86 20.9591 8.2C22.1391 7.52 23.4491 7.18 24.8891 7.18C26.3691 7.18 27.6891 7.52 28.8491 8.2C30.0291 8.86 30.9591 9.76 31.6391 10.9C32.3191 12.02 32.6591 13.29 32.6591 14.71C32.6591 16.13 32.3191 17.42 31.6391 18.58C30.9591 19.72 30.0291 20.63 28.8491 21.31C27.6891 21.97 26.3791 22.3 24.9191 22.3ZM24.8891 18.64C25.6291 18.64 26.2791 18.48 26.8391 18.16C27.4191 17.82 27.8591 17.36 28.1591 16.78C28.4791 16.18 28.6391 15.5 28.6391 14.74C28.6391 13.98 28.4791 13.31 28.1591 12.73C27.8391 12.15 27.3991 11.7 26.8391 11.38C26.2791 11.04 25.6291 10.87 24.8891 10.87C24.1691 10.87 23.5291 11.04 22.9691 11.38C22.4091 11.7 21.9691 12.15 21.6491 12.73C21.3291 13.31 21.1691 13.98 21.1691 14.74C21.1691 15.5 21.3291 16.18 21.6491 16.78C21.9691 17.36 22.4091 17.82 22.9691 18.16C23.5291 18.48 24.1691 18.64 24.8891 18.64ZM39.3098 22.12L33.2498 7.51H37.5098L41.5298 18.67H40.0898L44.2598 7.51H48.5498L42.0998 22.12H39.3098ZM35.2898 28.06L39.6998 18.73L42.0998 22.12L39.4598 28.06H35.2898ZM56.8263 22.3C55.3063 22.3 53.9563 21.98 52.7763 21.34C51.5963 20.68 50.6563 19.78 49.9563 18.64C49.2763 17.5 48.9363 16.2 48.9363 14.74C48.9363 13.3 49.2663 12.02 49.9263 10.9C50.6063 9.76 51.5263 8.86 52.6863 8.2C53.8463 7.52 55.1363 7.18 56.5563 7.18C57.9563 7.18 59.1863 7.5 60.2463 8.14C61.3263 8.76 62.1663 9.62 62.7663 10.72C63.3863 11.8 63.6963 13.03 63.6963 14.41C63.6963 14.67 63.6763 14.94 63.6363 15.22C63.6163 15.48 63.5663 15.78 63.4863 16.12L51.3063 16.15V13.21L61.6563 13.18L60.0663 14.41C60.0263 13.55 59.8663 12.83 59.5863 12.25C59.3263 11.67 58.9363 11.23 58.4163 10.93C57.9163 10.61 57.2963 10.45 56.5563 10.45C55.7763 10.45 55.0963 10.63 54.5163 10.99C53.9363 11.33 53.4863 11.82 53.1663 12.46C52.8663 13.08 52.7163 13.82 52.7163 14.68C52.7163 15.56 52.8763 16.33 53.1963 16.99C53.5363 17.63 54.0163 18.13 54.6363 18.49C55.2563 18.83 55.9763 19 56.7963 19C57.5363 19 58.2063 18.88 58.8063 18.64C59.4063 18.38 59.9263 18 60.3663 17.5L62.6763 19.81C61.9763 20.63 61.1163 21.25 60.0963 21.67C59.0963 22.09 58.0063 22.3 56.8263 22.3ZM66.1267 22V0.309999H70.0567V22H66.1267Z" fill="#0D2065"/>
<path d="M79.8182 22V0.91H83.8982V22H79.8182ZM82.8182 22V18.4H94.4882V22H82.8182ZM82.8182 12.97V9.49H93.4382V12.97H82.8182ZM82.8182 4.51V0.91H94.3382V4.51H82.8182ZM106.505 22L102.695 16.12L101.885 15.52L96.2451 7.51H100.895L104.405 12.82L105.155 13.39L111.125 22H106.505ZM95.9451 22L101.855 13.72L104.105 16.39L100.385 22H95.9451ZM105.305 15.49L102.995 12.85L106.445 7.51H110.855L105.305 15.49ZM121.188 22.3C120.148 22.3 119.208 22.09 118.368 21.67C117.528 21.23 116.858 20.64 116.358 19.9C115.858 19.16 115.588 18.31 115.548 17.35V12.22C115.588 11.26 115.858 10.41 116.358 9.67C116.878 8.91 117.548 8.31 118.368 7.87C119.208 7.43 120.148 7.21 121.188 7.21C122.528 7.21 123.728 7.54 124.788 8.2C125.848 8.86 126.678 9.76 127.278 10.9C127.898 12.04 128.208 13.33 128.208 14.77C128.208 16.19 127.898 17.47 127.278 18.61C126.678 19.75 125.848 20.65 124.788 21.31C123.728 21.97 122.528 22.3 121.188 22.3ZM113.148 28.06V7.51H117.078V11.32L116.418 14.83L117.048 18.34V28.06H113.148ZM120.498 18.67C121.218 18.67 121.858 18.51 122.418 18.19C122.978 17.85 123.408 17.39 123.708 16.81C124.028 16.21 124.188 15.52 124.188 14.74C124.188 13.98 124.028 13.31 123.708 12.73C123.408 12.13 122.978 11.67 122.418 11.35C121.858 11.01 121.218 10.84 120.498 10.84C119.798 10.84 119.168 11.01 118.608 11.35C118.048 11.67 117.608 12.13 117.288 12.73C116.988 13.31 116.838 13.98 116.838 14.74C116.838 15.52 116.988 16.21 117.288 16.81C117.608 17.39 118.038 17.85 118.578 18.19C119.138 18.51 119.778 18.67 120.498 18.67ZM137.595 22.3C136.135 22.3 134.815 21.97 133.635 21.31C132.475 20.63 131.545 19.72 130.845 18.58C130.165 17.42 129.825 16.13 129.825 14.71C129.825 13.29 130.165 12.02 130.845 10.9C131.525 9.76 132.455 8.86 133.635 8.2C134.815 7.52 136.125 7.18 137.565 7.18C139.045 7.18 140.365 7.52 141.525 8.2C142.705 8.86 143.635 9.76 144.315 10.9C144.995 12.02 145.335 13.29 145.335 14.71C145.335 16.13 144.995 17.42 144.315 18.58C143.635 19.72 142.705 20.63 141.525 21.31C140.365 21.97 139.055 22.3 137.595 22.3ZM137.565 18.64C138.305 18.64 138.955 18.48 139.515 18.16C140.095 17.82 140.535 17.36 140.835 16.78C141.155 16.18 141.315 15.5 141.315 14.74C141.315 13.98 141.155 13.31 140.835 12.73C140.515 12.15 140.075 11.7 139.515 11.38C138.955 11.04 138.305 10.87 137.565 10.87C136.845 10.87 136.205 11.04 135.645 11.38C135.085 11.7 134.645 12.15 134.325 12.73C134.005 13.31 133.845 13.98 133.845 14.74C133.845 15.5 134.005 16.18 134.325 16.78C134.645 17.36 135.085 17.82 135.645 18.16C136.205 18.48 136.845 18.64 137.565 18.64ZM147.865 22V7.51H151.795V22H147.865ZM151.795 13.99L150.265 12.97C150.445 11.19 150.965 9.79 151.825 8.77C152.685 7.73 153.925 7.21 155.545 7.21C156.245 7.21 156.875 7.33 157.435 7.57C157.995 7.79 158.505 8.16 158.965 8.68L156.505 11.5C156.285 11.26 156.015 11.08 155.695 10.96C155.395 10.84 155.045 10.78 154.645 10.78C153.805 10.78 153.115 11.05 152.575 11.59C152.055 12.11 151.795 12.91 151.795 13.99ZM162.563 22V1.48H166.493V22H162.563ZM159.173 10.96V7.51H169.883V10.96H159.173ZM176.781 22.33C175.961 22.33 175.151 22.22 174.351 22C173.571 21.78 172.851 21.48 172.191 21.1C171.531 20.7 170.961 20.22 170.481 19.66L172.821 17.29C173.321 17.85 173.901 18.27 174.561 18.55C175.221 18.83 175.951 18.97 176.751 18.97C177.391 18.97 177.871 18.88 178.191 18.7C178.531 18.52 178.701 18.25 178.701 17.89C178.701 17.49 178.521 17.18 178.161 16.96C177.821 16.74 177.371 16.56 176.811 16.42C176.251 16.26 175.661 16.09 175.041 15.91C174.441 15.71 173.861 15.46 173.301 15.16C172.741 14.84 172.281 14.41 171.921 13.87C171.581 13.31 171.411 12.59 171.411 11.71C171.411 10.79 171.631 9.99 172.071 9.31C172.531 8.63 173.181 8.1 174.021 7.72C174.861 7.34 175.851 7.15 176.991 7.15C178.191 7.15 179.271 7.36 180.231 7.78C181.211 8.2 182.021 8.83 182.661 9.67L180.291 12.04C179.851 11.5 179.351 11.11 178.791 10.87C178.251 10.63 177.661 10.51 177.021 10.51C176.441 10.51 175.991 10.6 175.671 10.78C175.371 10.96 175.221 11.21 175.221 11.53C175.221 11.89 175.391 12.17 175.731 12.37C176.091 12.57 176.551 12.75 177.111 12.91C177.671 13.05 178.251 13.22 178.851 13.42C179.471 13.6 180.051 13.86 180.591 14.2C181.151 14.54 181.601 14.99 181.941 15.55C182.301 16.11 182.481 16.83 182.481 17.71C182.481 19.13 181.971 20.26 180.951 21.1C179.931 21.92 178.541 22.33 176.781 22.33Z" fill="#063BFF"/>
</svg>
