<svg width="134" height="134" viewBox="0 0 134 134" fill="none" xmlns="http://www.w3.org/2000/svg">
<rect x="94.3491" y="60.134" width="44.7289" height="22.7371" rx="4" transform="rotate(132.864 94.3491 60.134)" fill="#0D2065"/>
<rect x="67.5269" y="59.4092" width="5.99882" height="39.7521" transform="rotate(132.864 67.5269 59.4092)" fill="#0D2065"/>
<rect x="71.3167" y="88.0549" width="3.42896" height="25.7172" transform="rotate(132.864 71.3167 88.0549)" fill="white"/>
<rect x="91.8689" y="65.2635" width="3.40265" height="25.5199" transform="rotate(132.864 91.8689 65.2635)" fill="white"/>
<path d="M119.111 73.4734C119.111 102.254 95.7802 125.585 67 125.585C38.2199 125.585 14.8889 102.254 14.8889 73.4734C14.8889 44.6932 38.2199 21.3623 67 21.3623C95.7802 21.3623 119.111 44.6932 119.111 73.4734ZM23.0763 73.4734C23.0763 97.7318 42.7416 117.397 67 117.397C91.2585 117.397 110.924 97.7318 110.924 73.4734C110.924 49.215 91.2585 29.5497 67 29.5497C42.7416 29.5497 23.0763 49.215 23.0763 73.4734Z" fill="#063BFF"/>
<path d="M134 67C134 104.003 104.003 134 67 134C29.9969 134 0 104.003 0 67C0 29.9969 29.9969 0 67 0C104.003 0 134 29.9969 134 67ZM9.10802 67C9.10802 98.9729 35.0271 124.892 67 124.892C98.9729 124.892 124.892 98.9729 124.892 67C124.892 35.0271 98.9729 9.10802 67 9.10802C35.0271 9.10802 9.10802 35.0271 9.10802 67Z" fill="#0D2065"/>
<rect x="23.3044" y="95.3276" width="17.2113" height="34.0623" rx="4" transform="rotate(-44.6691 23.3044 95.3276)" fill="#063BFF"/>
</svg>
